<mxfile host="Electron" modified="2024-04-26T10:33:09.681Z" agent="Mozilla/5.0 (Windows NT 10.0; Win64; x64) AppleWebKit/537.36 (KHTML, like Gecko) draw.io/24.1.0 Chrome/120.0.6099.109 Electron/28.1.0 Safari/537.36" etag="W-G4YZp0OIdUftVjtg9g" version="24.1.0" type="device">
  <diagram name="Страница — 1" id="GieKrZ_5f-SgAQIZc8JG">
    <mxGraphModel dx="2514" dy="2162" grid="1" gridSize="10" guides="1" tooltips="1" connect="1" arrows="1" fold="1" page="1" pageScale="1" pageWidth="827" pageHeight="1169" math="0" shadow="0">
      <root>
        <mxCell id="0" />
        <mxCell id="1" parent="0" />
        <mxCell id="zIdGuqCOg5LwLwfeNAEb-50" value="" style="rounded=0;whiteSpace=wrap;html=1;" parent="1" vertex="1">
          <mxGeometry x="-200" y="280" width="500" height="90" as="geometry" />
        </mxCell>
        <mxCell id="zIdGuqCOg5LwLwfeNAEb-47" value="" style="rounded=0;whiteSpace=wrap;html=1;" parent="1" vertex="1">
          <mxGeometry x="430" y="280" width="560" height="90" as="geometry" />
        </mxCell>
        <mxCell id="zIdGuqCOg5LwLwfeNAEb-21" value="" style="rounded=0;whiteSpace=wrap;html=1;" parent="1" vertex="1">
          <mxGeometry x="-110" y="47.5" width="1060" height="95" as="geometry" />
        </mxCell>
        <mxCell id="zIdGuqCOg5LwLwfeNAEb-1" value="" style="sketch=0;points=[[0.5,0,0],[1,0.5,0],[0.5,1,0],[0,0.5,0],[0.145,0.145,0],[0.8555,0.145,0],[0.855,0.8555,0],[0.145,0.855,0]];verticalLabelPosition=bottom;html=1;verticalAlign=top;aspect=fixed;align=center;pointerEvents=1;shape=mxgraph.cisco19.rect;prIcon=router;fillColor=#FAFAFA;strokeColor=#005073;" parent="1" vertex="1">
          <mxGeometry x="360" y="70" width="50" height="50" as="geometry" />
        </mxCell>
        <mxCell id="zIdGuqCOg5LwLwfeNAEb-2" value="" style="sketch=0;points=[[0.5,0,0],[1,0.5,0],[0.5,1,0],[0,0.5,0],[0.145,0.145,0],[0.8555,0.145,0],[0.855,0.8555,0],[0.145,0.855,0]];verticalLabelPosition=bottom;html=1;verticalAlign=top;aspect=fixed;align=center;pointerEvents=1;shape=mxgraph.cisco19.rect;prIcon=router;fillColor=#FAFAFA;strokeColor=#005073;" parent="1" vertex="1">
          <mxGeometry x="580" y="70" width="50" height="50" as="geometry" />
        </mxCell>
        <mxCell id="zIdGuqCOg5LwLwfeNAEb-3" value="" style="sketch=0;points=[[0.5,0,0],[1,0.5,0],[0.5,1,0],[0,0.5,0],[0.145,0.145,0],[0.8555,0.145,0],[0.855,0.8555,0],[0.145,0.855,0]];verticalLabelPosition=bottom;html=1;verticalAlign=top;aspect=fixed;align=center;pointerEvents=1;shape=mxgraph.cisco19.rect;prIcon=router;fillColor=#FAFAFA;strokeColor=#005073;" parent="1" vertex="1">
          <mxGeometry x="140" y="70" width="50" height="50" as="geometry" />
        </mxCell>
        <mxCell id="zIdGuqCOg5LwLwfeNAEb-4" value="" style="sketch=0;points=[[0.5,0,0],[1,0.5,0],[0.5,1,0],[0,0.5,0],[0.145,0.145,0],[0.8555,0.145,0],[0.855,0.8555,0],[0.145,0.855,0]];verticalLabelPosition=bottom;html=1;verticalAlign=top;aspect=fixed;align=center;pointerEvents=1;shape=mxgraph.cisco19.rect;prIcon=router;fillColor=#FAFAFA;strokeColor=#005073;" parent="1" vertex="1">
          <mxGeometry x="140" y="300" width="50" height="50" as="geometry" />
        </mxCell>
        <mxCell id="zIdGuqCOg5LwLwfeNAEb-5" value="" style="sketch=0;points=[[0.5,0,0],[1,0.5,0],[0.5,1,0],[0,0.5,0],[0.145,0.145,0],[0.8555,0.145,0],[0.855,0.8555,0],[0.145,0.855,0]];verticalLabelPosition=bottom;html=1;verticalAlign=top;aspect=fixed;align=center;pointerEvents=1;shape=mxgraph.cisco19.rect;prIcon=router;fillColor=#FAFAFA;strokeColor=#005073;" parent="1" vertex="1">
          <mxGeometry x="580" y="300" width="50" height="50" as="geometry" />
        </mxCell>
        <mxCell id="zIdGuqCOg5LwLwfeNAEb-6" value="" style="endArrow=none;html=1;rounded=0;entryX=0.5;entryY=1;entryDx=0;entryDy=0;entryPerimeter=0;exitX=0.5;exitY=0;exitDx=0;exitDy=0;exitPerimeter=0;" parent="1" source="hMn9EyxRoYZsTbVCq02E-99" target="zIdGuqCOg5LwLwfeNAEb-3" edge="1">
          <mxGeometry width="50" height="50" relative="1" as="geometry">
            <mxPoint x="390" y="290" as="sourcePoint" />
            <mxPoint x="440" y="240" as="targetPoint" />
          </mxGeometry>
        </mxCell>
        <mxCell id="zIdGuqCOg5LwLwfeNAEb-7" value="" style="endArrow=none;html=1;rounded=0;" parent="1" source="hMn9EyxRoYZsTbVCq02E-93" target="zIdGuqCOg5LwLwfeNAEb-1" edge="1">
          <mxGeometry width="50" height="50" relative="1" as="geometry">
            <mxPoint x="260" y="180" as="sourcePoint" />
            <mxPoint x="310" y="130" as="targetPoint" />
          </mxGeometry>
        </mxCell>
        <mxCell id="zIdGuqCOg5LwLwfeNAEb-9" value="" style="endArrow=none;html=1;rounded=0;entryX=0.5;entryY=1;entryDx=0;entryDy=0;entryPerimeter=0;exitX=0.5;exitY=0;exitDx=0;exitDy=0;exitPerimeter=0;" parent="1" source="hMn9EyxRoYZsTbVCq02E-101" target="zIdGuqCOg5LwLwfeNAEb-2" edge="1">
          <mxGeometry width="50" height="50" relative="1" as="geometry">
            <mxPoint x="390" y="290" as="sourcePoint" />
            <mxPoint x="440" y="240" as="targetPoint" />
          </mxGeometry>
        </mxCell>
        <mxCell id="zIdGuqCOg5LwLwfeNAEb-23" value="" style="endArrow=none;html=1;rounded=0;exitX=1;exitY=0.5;exitDx=0;exitDy=0;exitPerimeter=0;" parent="1" source="zIdGuqCOg5LwLwfeNAEb-1" target="zIdGuqCOg5LwLwfeNAEb-2" edge="1">
          <mxGeometry width="50" height="50" relative="1" as="geometry">
            <mxPoint x="390" y="30" as="sourcePoint" />
            <mxPoint x="440" y="-20" as="targetPoint" />
          </mxGeometry>
        </mxCell>
        <mxCell id="zIdGuqCOg5LwLwfeNAEb-24" value="&lt;font style=&quot;font-size: 20px;&quot;&gt;AS A&lt;/font&gt;" style="text;html=1;align=center;verticalAlign=middle;whiteSpace=wrap;rounded=0;" parent="1" vertex="1">
          <mxGeometry x="378" y="-40" width="252" height="140" as="geometry" />
        </mxCell>
        <mxCell id="zIdGuqCOg5LwLwfeNAEb-25" value="" style="sketch=0;points=[[0.5,0,0],[1,0.5,0],[0.5,1,0],[0,0.5,0],[0.145,0.145,0],[0.8555,0.145,0],[0.855,0.8555,0],[0.145,0.855,0]];verticalLabelPosition=bottom;html=1;verticalAlign=top;aspect=fixed;align=center;pointerEvents=1;shape=mxgraph.cisco19.rect;prIcon=router;fillColor=#FAFAFA;strokeColor=#005073;" parent="1" vertex="1">
          <mxGeometry x="820" y="70" width="50" height="50" as="geometry" />
        </mxCell>
        <mxCell id="zIdGuqCOg5LwLwfeNAEb-26" value="" style="sketch=0;points=[[0.5,0,0],[1,0.5,0],[0.5,1,0],[0,0.5,0],[0.145,0.145,0],[0.8555,0.145,0],[0.855,0.8555,0],[0.145,0.855,0]];verticalLabelPosition=bottom;html=1;verticalAlign=top;aspect=fixed;align=center;pointerEvents=1;shape=mxgraph.cisco19.rect;prIcon=router;fillColor=#FAFAFA;strokeColor=#005073;" parent="1" vertex="1">
          <mxGeometry x="-70" y="70" width="50" height="50" as="geometry" />
        </mxCell>
        <mxCell id="zIdGuqCOg5LwLwfeNAEb-28" value="" style="endArrow=none;html=1;rounded=0;exitX=1;exitY=0.5;exitDx=0;exitDy=0;exitPerimeter=0;" parent="1" source="hMn9EyxRoYZsTbVCq02E-91" edge="1">
          <mxGeometry width="50" height="50" relative="1" as="geometry">
            <mxPoint x="-30" y="94.41" as="sourcePoint" />
            <mxPoint x="140" y="94.41" as="targetPoint" />
          </mxGeometry>
        </mxCell>
        <mxCell id="zIdGuqCOg5LwLwfeNAEb-30" value="" style="endArrow=none;html=1;rounded=0;exitX=0;exitY=0.5;exitDx=0;exitDy=0;exitPerimeter=0;entryX=1.046;entryY=0.884;entryDx=0;entryDy=0;entryPerimeter=0;" parent="1" source="hMn9EyxRoYZsTbVCq02E-96" edge="1">
          <mxGeometry width="50" height="50" relative="1" as="geometry">
            <mxPoint x="797.6999999999996" y="79.99999999999989" as="sourcePoint" />
            <mxPoint x="629.9999999999998" y="99.20000000000005" as="targetPoint" />
          </mxGeometry>
        </mxCell>
        <mxCell id="zIdGuqCOg5LwLwfeNAEb-31" value="" style="sketch=0;points=[[0.5,0,0],[1,0.5,0],[0.5,1,0],[0,0.5,0],[0.145,0.145,0],[0.8555,0.145,0],[0.855,0.8555,0],[0.145,0.855,0]];verticalLabelPosition=bottom;html=1;verticalAlign=top;aspect=fixed;align=center;pointerEvents=1;shape=mxgraph.cisco19.rect;prIcon=router;fillColor=#FAFAFA;strokeColor=#005073;" parent="1" vertex="1">
          <mxGeometry x="810" y="300" width="50" height="50" as="geometry" />
        </mxCell>
        <mxCell id="zIdGuqCOg5LwLwfeNAEb-32" value="" style="endArrow=none;html=1;rounded=0;exitX=0.5;exitY=0;exitDx=0;exitDy=0;exitPerimeter=0;" parent="1" source="hMn9EyxRoYZsTbVCq02E-103" edge="1">
          <mxGeometry width="50" height="50" relative="1" as="geometry">
            <mxPoint x="620" y="290" as="sourcePoint" />
            <mxPoint x="835" y="120" as="targetPoint" />
          </mxGeometry>
        </mxCell>
        <mxCell id="zIdGuqCOg5LwLwfeNAEb-33" value="" style="sketch=0;points=[[0.5,0,0],[1,0.5,0],[0.5,1,0],[0,0.5,0],[0.145,0.145,0],[0.8555,0.145,0],[0.855,0.8555,0],[0.145,0.855,0]];verticalLabelPosition=bottom;html=1;verticalAlign=top;aspect=fixed;align=center;pointerEvents=1;shape=mxgraph.cisco19.rect;prIcon=router;fillColor=#FAFAFA;strokeColor=#005073;" parent="1" vertex="1">
          <mxGeometry x="-70" y="300" width="50" height="50" as="geometry" />
        </mxCell>
        <mxCell id="zIdGuqCOg5LwLwfeNAEb-34" value="" style="endArrow=none;html=1;rounded=0;entryX=0.5;entryY=1;entryDx=0;entryDy=0;entryPerimeter=0;exitX=0.5;exitY=0;exitDx=0;exitDy=0;exitPerimeter=0;" parent="1" source="zIdGuqCOg5LwLwfeNAEb-33" target="zIdGuqCOg5LwLwfeNAEb-26" edge="1">
          <mxGeometry width="50" height="50" relative="1" as="geometry">
            <mxPoint x="180" y="290" as="sourcePoint" />
            <mxPoint x="-265" y="110" as="targetPoint" />
          </mxGeometry>
        </mxCell>
        <mxCell id="zIdGuqCOg5LwLwfeNAEb-52" value="&lt;font style=&quot;font-size: 20px;&quot;&gt;AS B&lt;/font&gt;" style="text;html=1;align=center;verticalAlign=middle;whiteSpace=wrap;rounded=0;" parent="1" vertex="1">
          <mxGeometry x="-240" y="340" width="120" height="100" as="geometry" />
        </mxCell>
        <mxCell id="zIdGuqCOg5LwLwfeNAEb-53" value="&lt;font style=&quot;font-size: 20px;&quot;&gt;AS C&lt;/font&gt;" style="text;html=1;align=center;verticalAlign=middle;whiteSpace=wrap;rounded=0;" parent="1" vertex="1">
          <mxGeometry x="780" y="330" width="252" height="140" as="geometry" />
        </mxCell>
        <mxCell id="zIdGuqCOg5LwLwfeNAEb-61" value="" style="endArrow=none;html=1;rounded=0;entryX=0.5;entryY=1;entryDx=0;entryDy=0;entryPerimeter=0;exitX=0.5;exitY=0;exitDx=0;exitDy=0;exitPerimeter=0;" parent="1" edge="1" source="hMn9EyxRoYZsTbVCq02E-1">
          <mxGeometry width="50" height="50" relative="1" as="geometry">
            <mxPoint x="394.9999999999998" y="809.9999999999995" as="sourcePoint" />
            <mxPoint x="395" y="635" as="targetPoint" />
          </mxGeometry>
        </mxCell>
        <mxCell id="zIdGuqCOg5LwLwfeNAEb-62" value="" style="sketch=0;points=[[0.5,0,0],[1,0.5,0],[0.5,1,0],[0,0.5,0],[0.145,0.145,0],[0.8555,0.145,0],[0.855,0.8555,0],[0.145,0.855,0]];verticalLabelPosition=bottom;html=1;verticalAlign=top;aspect=fixed;align=center;pointerEvents=1;shape=mxgraph.cisco19.rect;prIcon=router;fillColor=#FAFAFA;strokeColor=#005073;" parent="1" vertex="1">
          <mxGeometry x="810" y="620" width="50" height="50" as="geometry" />
        </mxCell>
        <mxCell id="zIdGuqCOg5LwLwfeNAEb-64" value="" style="endArrow=none;html=1;rounded=0;entryX=0.5;entryY=1;entryDx=0;entryDy=0;entryPerimeter=0;exitX=0.5;exitY=0;exitDx=0;exitDy=0;exitPerimeter=0;" parent="1" source="hMn9EyxRoYZsTbVCq02E-107" target="zIdGuqCOg5LwLwfeNAEb-31" edge="1">
          <mxGeometry width="50" height="50" relative="1" as="geometry">
            <mxPoint x="540" y="860" as="sourcePoint" />
            <mxPoint x="590" y="810" as="targetPoint" />
          </mxGeometry>
        </mxCell>
        <mxCell id="zIdGuqCOg5LwLwfeNAEb-66" value="" style="endArrow=none;html=1;rounded=0;entryX=0.5;entryY=1;entryDx=0;entryDy=0;entryPerimeter=0;exitX=0.5;exitY=0;exitDx=0;exitDy=0;" parent="1" edge="1" target="zIdGuqCOg5LwLwfeNAEb-62">
          <mxGeometry width="50" height="50" relative="1" as="geometry">
            <mxPoint x="835" y="810" as="sourcePoint" />
            <mxPoint x="833.89" y="630" as="targetPoint" />
          </mxGeometry>
        </mxCell>
        <mxCell id="zIdGuqCOg5LwLwfeNAEb-67" value="" style="sketch=0;points=[[0.5,0,0],[1,0.5,0],[0.5,1,0],[0,0.5,0],[0.145,0.145,0],[0.8555,0.145,0],[0.855,0.8555,0],[0.145,0.855,0]];verticalLabelPosition=bottom;html=1;verticalAlign=top;aspect=fixed;align=center;pointerEvents=1;shape=mxgraph.cisco19.rect;prIcon=router;fillColor=#FAFAFA;strokeColor=#005073;" parent="1" vertex="1">
          <mxGeometry x="140" y="520" width="50" height="50" as="geometry" />
        </mxCell>
        <mxCell id="zIdGuqCOg5LwLwfeNAEb-68" value="" style="sketch=0;points=[[0.5,0,0],[1,0.5,0],[0.5,1,0],[0,0.5,0],[0.145,0.145,0],[0.8555,0.145,0],[0.855,0.8555,0],[0.145,0.855,0]];verticalLabelPosition=bottom;html=1;verticalAlign=top;aspect=fixed;align=center;pointerEvents=1;shape=mxgraph.cisco19.rect;prIcon=router;fillColor=#FAFAFA;strokeColor=#005073;" parent="1" vertex="1">
          <mxGeometry x="580" y="520" width="50" height="50" as="geometry" />
        </mxCell>
        <mxCell id="zIdGuqCOg5LwLwfeNAEb-69" value="" style="endArrow=none;html=1;rounded=0;entryX=0.5;entryY=1;entryDx=0;entryDy=0;entryPerimeter=0;exitX=0.5;exitY=0;exitDx=0;exitDy=0;exitPerimeter=0;" parent="1" source="hMn9EyxRoYZsTbVCq02E-106" edge="1">
          <mxGeometry width="50" height="50" relative="1" as="geometry">
            <mxPoint x="390" y="510" as="sourcePoint" />
            <mxPoint x="165" y="340" as="targetPoint" />
          </mxGeometry>
        </mxCell>
        <mxCell id="zIdGuqCOg5LwLwfeNAEb-70" value="" style="endArrow=none;html=1;rounded=0;entryX=0.5;entryY=1;entryDx=0;entryDy=0;entryPerimeter=0;exitX=0.5;exitY=0;exitDx=0;exitDy=0;exitPerimeter=0;" parent="1" source="zIdGuqCOg5LwLwfeNAEb-68" edge="1">
          <mxGeometry width="50" height="50" relative="1" as="geometry">
            <mxPoint x="390" y="510" as="sourcePoint" />
            <mxPoint x="605" y="340" as="targetPoint" />
          </mxGeometry>
        </mxCell>
        <mxCell id="zIdGuqCOg5LwLwfeNAEb-71" value="" style="endArrow=none;html=1;rounded=0;exitX=0.855;exitY=0.8555;exitDx=0;exitDy=0;exitPerimeter=0;entryX=0.145;entryY=0.145;entryDx=0;entryDy=0;entryPerimeter=0;" parent="1" source="zIdGuqCOg5LwLwfeNAEb-67" edge="1">
          <mxGeometry width="50" height="50" relative="1" as="geometry">
            <mxPoint x="380" y="510" as="sourcePoint" />
            <mxPoint x="367.25" y="607.25" as="targetPoint" />
          </mxGeometry>
        </mxCell>
        <mxCell id="zIdGuqCOg5LwLwfeNAEb-72" value="" style="endArrow=none;html=1;rounded=0;entryX=0;entryY=0.5;entryDx=0;entryDy=0;entryPerimeter=0;exitX=0.8555;exitY=0.145;exitDx=0;exitDy=0;exitPerimeter=0;" parent="1" target="zIdGuqCOg5LwLwfeNAEb-68" edge="1" source="hMn9EyxRoYZsTbVCq02E-147">
          <mxGeometry width="50" height="50" relative="1" as="geometry">
            <mxPoint x="402.7750000000001" y="607.25" as="sourcePoint" />
            <mxPoint x="430" y="460" as="targetPoint" />
          </mxGeometry>
        </mxCell>
        <mxCell id="hMn9EyxRoYZsTbVCq02E-3" value="" style="rounded=0;orthogonalLoop=1;jettySize=auto;html=1;endArrow=none;endFill=0;" edge="1" parent="1" source="hMn9EyxRoYZsTbVCq02E-1" target="hMn9EyxRoYZsTbVCq02E-2">
          <mxGeometry relative="1" as="geometry" />
        </mxCell>
        <mxCell id="hMn9EyxRoYZsTbVCq02E-1" value="" style="sketch=0;points=[[0.5,0,0],[1,0.5,0],[0.5,1,0],[0,0.5,0],[0.145,0.145,0],[0.8555,0.145,0],[0.855,0.8555,0],[0.145,0.855,0]];verticalLabelPosition=bottom;html=1;verticalAlign=top;aspect=fixed;align=center;pointerEvents=1;shape=mxgraph.cisco19.rect;prIcon=router;fillColor=#FAFAFA;strokeColor=#005073;" vertex="1" parent="1">
          <mxGeometry x="370" y="810" width="50" height="50" as="geometry" />
        </mxCell>
        <mxCell id="hMn9EyxRoYZsTbVCq02E-6" value="" style="rounded=0;orthogonalLoop=1;jettySize=auto;html=1;endArrow=none;endFill=0;" edge="1" parent="1" source="hMn9EyxRoYZsTbVCq02E-111" target="hMn9EyxRoYZsTbVCq02E-5">
          <mxGeometry relative="1" as="geometry" />
        </mxCell>
        <mxCell id="hMn9EyxRoYZsTbVCq02E-2" value="`" style="sketch=0;points=[[0.015,0.015,0],[0.985,0.015,0],[0.985,0.985,0],[0.015,0.985,0],[0.25,0,0],[0.5,0,0],[0.75,0,0],[1,0.25,0],[1,0.5,0],[1,0.75,0],[0.75,1,0],[0.5,1,0],[0.25,1,0],[0,0.75,0],[0,0.5,0],[0,0.25,0]];verticalLabelPosition=bottom;html=1;verticalAlign=top;aspect=fixed;align=center;pointerEvents=1;shape=mxgraph.cisco19.rect;prIcon=workgroup_switch;fillColor=#FAFAFA;strokeColor=#005073;" vertex="1" parent="1">
          <mxGeometry x="370" y="960" width="50" height="50" as="geometry" />
        </mxCell>
        <mxCell id="hMn9EyxRoYZsTbVCq02E-5" value="" style="image;sketch=0;aspect=fixed;html=1;points=[];align=center;fontSize=12;image=img/lib/mscae/VM_Linux.svg;" vertex="1" parent="1">
          <mxGeometry x="145" y="850" width="50" height="46" as="geometry" />
        </mxCell>
        <mxCell id="hMn9EyxRoYZsTbVCq02E-7" value="" style="rounded=0;orthogonalLoop=1;jettySize=auto;html=1;endArrow=none;endFill=0;exitX=0.16;exitY=0.55;exitDx=0;exitDy=0;exitPerimeter=0;" edge="1" parent="1" target="hMn9EyxRoYZsTbVCq02E-8" source="hMn9EyxRoYZsTbVCq02E-113">
          <mxGeometry relative="1" as="geometry">
            <mxPoint x="380" y="995" as="sourcePoint" />
          </mxGeometry>
        </mxCell>
        <mxCell id="hMn9EyxRoYZsTbVCq02E-8" value="" style="image;sketch=0;aspect=fixed;html=1;points=[];align=center;fontSize=12;image=img/lib/mscae/VM_Linux.svg;" vertex="1" parent="1">
          <mxGeometry x="90" y="1020" width="50" height="46" as="geometry" />
        </mxCell>
        <mxCell id="hMn9EyxRoYZsTbVCq02E-9" value="" style="rounded=0;orthogonalLoop=1;jettySize=auto;html=1;endArrow=none;endFill=0;exitX=0.5;exitY=1;exitDx=0;exitDy=0;exitPerimeter=0;" edge="1" parent="1" target="hMn9EyxRoYZsTbVCq02E-10" source="hMn9EyxRoYZsTbVCq02E-117">
          <mxGeometry relative="1" as="geometry">
            <mxPoint x="390" y="1005" as="sourcePoint" />
          </mxGeometry>
        </mxCell>
        <mxCell id="hMn9EyxRoYZsTbVCq02E-10" value="" style="image;sketch=0;aspect=fixed;html=1;points=[];align=center;fontSize=12;image=img/lib/mscae/VM_Linux.svg;" vertex="1" parent="1">
          <mxGeometry x="370" y="1123" width="50" height="46" as="geometry" />
        </mxCell>
        <mxCell id="hMn9EyxRoYZsTbVCq02E-11" value="" style="edgeStyle=orthogonalEdgeStyle;rounded=0;orthogonalLoop=1;jettySize=auto;html=1;endArrow=none;endFill=0;exitX=1;exitY=0.5;exitDx=0;exitDy=0;exitPerimeter=0;" edge="1" parent="1" target="hMn9EyxRoYZsTbVCq02E-12" source="hMn9EyxRoYZsTbVCq02E-115">
          <mxGeometry relative="1" as="geometry">
            <mxPoint x="400" y="1015" as="sourcePoint" />
            <Array as="points" />
          </mxGeometry>
        </mxCell>
        <mxCell id="hMn9EyxRoYZsTbVCq02E-12" value="" style="image;sketch=0;aspect=fixed;html=1;points=[];align=center;fontSize=12;image=img/lib/mscae/VM_Linux.svg;" vertex="1" parent="1">
          <mxGeometry x="600" y="962" width="50" height="46" as="geometry" />
        </mxCell>
        <mxCell id="hMn9EyxRoYZsTbVCq02E-22" value="" style="rounded=0;orthogonalLoop=1;jettySize=auto;html=1;entryX=0.6;entryY=0.522;entryDx=0;entryDy=0;entryPerimeter=0;" edge="1" parent="1" source="hMn9EyxRoYZsTbVCq02E-121" target="hMn9EyxRoYZsTbVCq02E-19">
          <mxGeometry relative="1" as="geometry" />
        </mxCell>
        <mxCell id="hMn9EyxRoYZsTbVCq02E-23" value="" style="rounded=0;orthogonalLoop=1;jettySize=auto;html=1;endArrow=none;endFill=0;" edge="1" parent="1" source="hMn9EyxRoYZsTbVCq02E-18" target="hMn9EyxRoYZsTbVCq02E-20">
          <mxGeometry relative="1" as="geometry" />
        </mxCell>
        <mxCell id="hMn9EyxRoYZsTbVCq02E-18" value="" style="sketch=0;points=[[0.015,0.015,0],[0.985,0.015,0],[0.985,0.985,0],[0.015,0.985,0],[0.25,0,0],[0.5,0,0],[0.75,0,0],[1,0.25,0],[1,0.5,0],[1,0.75,0],[0.75,1,0],[0.5,1,0],[0.25,1,0],[0,0.75,0],[0,0.5,0],[0,0.25,0]];verticalLabelPosition=bottom;html=1;verticalAlign=top;aspect=fixed;align=center;pointerEvents=1;shape=mxgraph.cisco19.rect;prIcon=l2_switch;fillColor=#FAFAFA;strokeColor=#005073;" vertex="1" parent="1">
          <mxGeometry x="810" y="800" width="50" height="50" as="geometry" />
        </mxCell>
        <mxCell id="hMn9EyxRoYZsTbVCq02E-19" value="" style="image;sketch=0;aspect=fixed;html=1;points=[];align=center;fontSize=12;image=img/lib/mscae/VM_Linux.svg;" vertex="1" parent="1">
          <mxGeometry x="1020" y="1000" width="50" height="46" as="geometry" />
        </mxCell>
        <mxCell id="hMn9EyxRoYZsTbVCq02E-20" value="" style="image;sketch=0;aspect=fixed;html=1;points=[];align=center;fontSize=12;image=img/lib/mscae/VM_Linux.svg;" vertex="1" parent="1">
          <mxGeometry x="750" y="1000" width="50" height="46" as="geometry" />
        </mxCell>
        <mxCell id="hMn9EyxRoYZsTbVCq02E-26" value="&lt;font style=&quot;font-size: 18px;&quot;&gt;M1&lt;/font&gt;" style="text;html=1;align=center;verticalAlign=middle;whiteSpace=wrap;rounded=0;" vertex="1" parent="1">
          <mxGeometry x="-30" y="60" width="60" height="30" as="geometry" />
        </mxCell>
        <mxCell id="hMn9EyxRoYZsTbVCq02E-27" value="&lt;font style=&quot;font-size: 18px;&quot;&gt;M13&lt;/font&gt;" style="text;html=1;align=center;verticalAlign=middle;whiteSpace=wrap;rounded=0;" vertex="1" parent="1">
          <mxGeometry x="420" y="800" width="60" height="30" as="geometry" />
        </mxCell>
        <mxCell id="hMn9EyxRoYZsTbVCq02E-28" value="&lt;font style=&quot;font-size: 18px;&quot;&gt;M12&lt;/font&gt;" style="text;html=1;align=center;verticalAlign=middle;whiteSpace=wrap;rounded=0;" vertex="1" parent="1">
          <mxGeometry x="855" y="610" width="60" height="30" as="geometry" />
        </mxCell>
        <mxCell id="hMn9EyxRoYZsTbVCq02E-29" value="&lt;font style=&quot;font-size: 18px;&quot;&gt;M11&lt;/font&gt;" style="text;html=1;align=center;verticalAlign=middle;whiteSpace=wrap;rounded=0;" vertex="1" parent="1">
          <mxGeometry x="520" y="500" width="60" height="30" as="geometry" />
        </mxCell>
        <mxCell id="hMn9EyxRoYZsTbVCq02E-30" value="&lt;font style=&quot;font-size: 18px;&quot;&gt;M10&lt;/font&gt;" style="text;html=1;align=center;verticalAlign=middle;whiteSpace=wrap;rounded=0;" vertex="1" parent="1">
          <mxGeometry x="190" y="510" width="60" height="30" as="geometry" />
        </mxCell>
        <mxCell id="hMn9EyxRoYZsTbVCq02E-31" value="&lt;font style=&quot;font-size: 18px;&quot;&gt;M9&lt;/font&gt;" style="text;html=1;align=center;verticalAlign=middle;whiteSpace=wrap;rounded=0;" vertex="1" parent="1">
          <mxGeometry x="855" y="290" width="60" height="30" as="geometry" />
        </mxCell>
        <mxCell id="hMn9EyxRoYZsTbVCq02E-32" value="&lt;font style=&quot;font-size: 18px;&quot;&gt;M8&lt;/font&gt;" style="text;html=1;align=center;verticalAlign=middle;whiteSpace=wrap;rounded=0;" vertex="1" parent="1">
          <mxGeometry x="630" y="290" width="60" height="30" as="geometry" />
        </mxCell>
        <mxCell id="hMn9EyxRoYZsTbVCq02E-33" value="&lt;font style=&quot;font-size: 18px;&quot;&gt;M7&lt;/font&gt;" style="text;html=1;align=center;verticalAlign=middle;whiteSpace=wrap;rounded=0;" vertex="1" parent="1">
          <mxGeometry x="180" y="300" width="60" height="30" as="geometry" />
        </mxCell>
        <mxCell id="hMn9EyxRoYZsTbVCq02E-34" value="&lt;font style=&quot;font-size: 18px;&quot;&gt;M6&lt;/font&gt;" style="text;html=1;align=center;verticalAlign=middle;whiteSpace=wrap;rounded=0;" vertex="1" parent="1">
          <mxGeometry x="-20" y="300" width="60" height="30" as="geometry" />
        </mxCell>
        <mxCell id="hMn9EyxRoYZsTbVCq02E-35" value="&lt;font style=&quot;font-size: 18px;&quot;&gt;M5&lt;/font&gt;" style="text;html=1;align=center;verticalAlign=middle;whiteSpace=wrap;rounded=0;" vertex="1" parent="1">
          <mxGeometry x="855" y="60" width="60" height="30" as="geometry" />
        </mxCell>
        <mxCell id="hMn9EyxRoYZsTbVCq02E-36" value="&lt;font style=&quot;font-size: 18px;&quot;&gt;M4.&lt;/font&gt;" style="text;html=1;align=center;verticalAlign=middle;whiteSpace=wrap;rounded=0;" vertex="1" parent="1">
          <mxGeometry x="620" y="60" width="60" height="30" as="geometry" />
        </mxCell>
        <mxCell id="hMn9EyxRoYZsTbVCq02E-37" value="&lt;font style=&quot;font-size: 18px;&quot;&gt;M3&lt;/font&gt;" style="text;html=1;align=center;verticalAlign=middle;whiteSpace=wrap;rounded=0;" vertex="1" parent="1">
          <mxGeometry x="410" y="60" width="60" height="30" as="geometry" />
        </mxCell>
        <mxCell id="hMn9EyxRoYZsTbVCq02E-38" value="&lt;font style=&quot;font-size: 18px;&quot;&gt;M2&lt;/font&gt;" style="text;html=1;align=center;verticalAlign=middle;whiteSpace=wrap;rounded=0;" vertex="1" parent="1">
          <mxGeometry x="190" y="60" width="60" height="30" as="geometry" />
        </mxCell>
        <mxCell id="hMn9EyxRoYZsTbVCq02E-40" value="" style="image;points=[];aspect=fixed;html=1;align=center;shadow=0;dashed=0;image=img/lib/allied_telesis/switch/Switch_24_port_L2.svg;" vertex="1" parent="1">
          <mxGeometry x="347.8" y="585" width="74.4" height="51" as="geometry" />
        </mxCell>
        <mxCell id="hMn9EyxRoYZsTbVCq02E-41" value="&lt;font style=&quot;font-size: 18px;&quot;&gt;Switch1&lt;/font&gt;" style="text;html=1;align=center;verticalAlign=middle;whiteSpace=wrap;rounded=0;" vertex="1" parent="1">
          <mxGeometry x="353" y="540" width="60" height="30" as="geometry" />
        </mxCell>
        <mxCell id="hMn9EyxRoYZsTbVCq02E-42" value="&lt;font style=&quot;font-size: 18px;&quot;&gt;Switch1&lt;/font&gt;" style="text;html=1;align=center;verticalAlign=middle;whiteSpace=wrap;rounded=0;" vertex="1" parent="1">
          <mxGeometry x="353" y="540" width="60" height="30" as="geometry" />
        </mxCell>
        <mxCell id="hMn9EyxRoYZsTbVCq02E-44" value="&lt;font style=&quot;font-size: 18px;&quot;&gt;SW2&lt;/font&gt;" style="text;html=1;align=center;verticalAlign=middle;whiteSpace=wrap;rounded=0;" vertex="1" parent="1">
          <mxGeometry x="770" y="760" width="60" height="30" as="geometry" />
        </mxCell>
        <mxCell id="hMn9EyxRoYZsTbVCq02E-45" value="&lt;font style=&quot;font-size: 18px;&quot;&gt;SW2&lt;/font&gt;" style="text;html=1;align=center;verticalAlign=middle;whiteSpace=wrap;rounded=0;" vertex="1" parent="1">
          <mxGeometry x="770" y="760" width="60" height="30" as="geometry" />
        </mxCell>
        <mxCell id="hMn9EyxRoYZsTbVCq02E-46" value="&lt;font style=&quot;font-size: 18px;&quot;&gt;SW1&lt;/font&gt;" style="text;html=1;align=center;verticalAlign=middle;whiteSpace=wrap;rounded=0;" vertex="1" parent="1">
          <mxGeometry x="400" y="936" width="60" height="30" as="geometry" />
        </mxCell>
        <mxCell id="hMn9EyxRoYZsTbVCq02E-47" value="&lt;font style=&quot;font-size: 18px;&quot;&gt;SW1&lt;/font&gt;" style="text;html=1;align=center;verticalAlign=middle;whiteSpace=wrap;rounded=0;" vertex="1" parent="1">
          <mxGeometry x="400" y="936" width="60" height="30" as="geometry" />
        </mxCell>
        <mxCell id="hMn9EyxRoYZsTbVCq02E-48" value="&lt;font style=&quot;font-size: 18px;&quot;&gt;Prepod&lt;/font&gt;" style="text;html=1;align=center;verticalAlign=middle;whiteSpace=wrap;rounded=0;" vertex="1" parent="1">
          <mxGeometry x="135" y="820" width="60" height="30" as="geometry" />
        </mxCell>
        <mxCell id="hMn9EyxRoYZsTbVCq02E-49" value="&lt;font style=&quot;font-size: 18px;&quot;&gt;PC1&lt;/font&gt;" style="text;html=1;align=center;verticalAlign=middle;whiteSpace=wrap;rounded=0;" vertex="1" parent="1">
          <mxGeometry x="80" y="986" width="60" height="30" as="geometry" />
        </mxCell>
        <mxCell id="hMn9EyxRoYZsTbVCq02E-50" value="&lt;span style=&quot;font-size: 18px;&quot;&gt;server&lt;/span&gt;" style="text;html=1;align=center;verticalAlign=middle;whiteSpace=wrap;rounded=0;" vertex="1" parent="1">
          <mxGeometry x="365" y="1180" width="60" height="30" as="geometry" />
        </mxCell>
        <mxCell id="hMn9EyxRoYZsTbVCq02E-51" value="&lt;font style=&quot;font-size: 18px;&quot;&gt;PC2&lt;/font&gt;" style="text;html=1;align=center;verticalAlign=middle;whiteSpace=wrap;rounded=0;" vertex="1" parent="1">
          <mxGeometry x="555" y="1020" width="60" height="30" as="geometry" />
        </mxCell>
        <mxCell id="hMn9EyxRoYZsTbVCq02E-52" value="&lt;font style=&quot;font-size: 18px;&quot;&gt;PC4&lt;/font&gt;" style="text;html=1;align=center;verticalAlign=middle;whiteSpace=wrap;rounded=0;" vertex="1" parent="1">
          <mxGeometry x="745" y="1046" width="60" height="30" as="geometry" />
        </mxCell>
        <mxCell id="hMn9EyxRoYZsTbVCq02E-53" value="&lt;font style=&quot;font-size: 18px;&quot;&gt;PC5&lt;/font&gt;" style="text;html=1;align=center;verticalAlign=middle;whiteSpace=wrap;rounded=0;" vertex="1" parent="1">
          <mxGeometry x="1015" y="1051" width="60" height="30" as="geometry" />
        </mxCell>
        <mxCell id="hMn9EyxRoYZsTbVCq02E-56" value="" style="rounded=0;orthogonalLoop=1;jettySize=auto;html=1;entryX=0.5;entryY=0;entryDx=0;entryDy=0;entryPerimeter=0;endArrow=none;endFill=0;exitX=0.55;exitY=0.95;exitDx=0;exitDy=0;exitPerimeter=0;" edge="1" parent="1" source="hMn9EyxRoYZsTbVCq02E-57" target="zIdGuqCOg5LwLwfeNAEb-26">
          <mxGeometry relative="1" as="geometry">
            <mxPoint x="-45.0027998999999" y="55.715000000000146" as="sourcePoint" />
          </mxGeometry>
        </mxCell>
        <mxCell id="hMn9EyxRoYZsTbVCq02E-57" value="1.1.1.1" style="ellipse;shape=cloud;whiteSpace=wrap;html=1;" vertex="1" parent="1">
          <mxGeometry x="-110" y="-130" width="120" height="80" as="geometry" />
        </mxCell>
        <mxCell id="hMn9EyxRoYZsTbVCq02E-58" value="" style="rounded=0;orthogonalLoop=1;jettySize=auto;html=1;entryX=0.855;entryY=0.8555;entryDx=0;entryDy=0;entryPerimeter=0;endArrow=none;endFill=0;exitX=0.55;exitY=0.95;exitDx=0;exitDy=0;exitPerimeter=0;" edge="1" parent="1" source="hMn9EyxRoYZsTbVCq02E-59" target="zIdGuqCOg5LwLwfeNAEb-62">
          <mxGeometry relative="1" as="geometry">
            <mxPoint x="-35.0027998999999" y="65.71500000000015" as="sourcePoint" />
            <mxPoint x="-35" y="80" as="targetPoint" />
          </mxGeometry>
        </mxCell>
        <mxCell id="hMn9EyxRoYZsTbVCq02E-59" value="12.12.12.12" style="ellipse;shape=cloud;whiteSpace=wrap;html=1;" vertex="1" parent="1">
          <mxGeometry x="990" y="690" width="120" height="80" as="geometry" />
        </mxCell>
        <mxCell id="hMn9EyxRoYZsTbVCq02E-60" value="" style="rounded=0;orthogonalLoop=1;jettySize=auto;html=1;entryX=0.5;entryY=1;entryDx=0;entryDy=0;entryPerimeter=0;endArrow=none;endFill=0;exitX=0.55;exitY=0.95;exitDx=0;exitDy=0;exitPerimeter=0;" edge="1" parent="1" source="hMn9EyxRoYZsTbVCq02E-61" target="zIdGuqCOg5LwLwfeNAEb-68">
          <mxGeometry relative="1" as="geometry">
            <mxPoint x="-25.0027998999999" y="75.71500000000015" as="sourcePoint" />
            <mxPoint x="-25" y="90" as="targetPoint" />
          </mxGeometry>
        </mxCell>
        <mxCell id="hMn9EyxRoYZsTbVCq02E-61" value="11.11.11.11" style="ellipse;shape=cloud;whiteSpace=wrap;html=1;" vertex="1" parent="1">
          <mxGeometry x="545" y="705" width="120" height="80" as="geometry" />
        </mxCell>
        <mxCell id="hMn9EyxRoYZsTbVCq02E-62" value="" style="rounded=0;orthogonalLoop=1;jettySize=auto;html=1;entryX=0.337;entryY=1.014;entryDx=0;entryDy=0;entryPerimeter=0;endArrow=none;endFill=0;exitX=0.55;exitY=0.95;exitDx=0;exitDy=0;exitPerimeter=0;" edge="1" parent="1" source="hMn9EyxRoYZsTbVCq02E-63" target="zIdGuqCOg5LwLwfeNAEb-67">
          <mxGeometry relative="1" as="geometry">
            <mxPoint x="-15.0027998999999" y="85.71500000000015" as="sourcePoint" />
            <mxPoint x="-15" y="100" as="targetPoint" />
          </mxGeometry>
        </mxCell>
        <mxCell id="hMn9EyxRoYZsTbVCq02E-63" value="10.10.10.10" style="ellipse;shape=cloud;whiteSpace=wrap;html=1;" vertex="1" parent="1">
          <mxGeometry x="95" y="680" width="120" height="80" as="geometry" />
        </mxCell>
        <mxCell id="hMn9EyxRoYZsTbVCq02E-64" value="" style="rounded=0;orthogonalLoop=1;jettySize=auto;html=1;entryX=0.8555;entryY=0.145;entryDx=0;entryDy=0;entryPerimeter=0;endArrow=none;endFill=0;exitX=0.55;exitY=0.95;exitDx=0;exitDy=0;exitPerimeter=0;" edge="1" parent="1" source="hMn9EyxRoYZsTbVCq02E-65" target="zIdGuqCOg5LwLwfeNAEb-31">
          <mxGeometry relative="1" as="geometry">
            <mxPoint x="-5.0027998999999" y="95.71500000000015" as="sourcePoint" />
            <mxPoint x="-5" y="110" as="targetPoint" />
          </mxGeometry>
        </mxCell>
        <mxCell id="hMn9EyxRoYZsTbVCq02E-65" value="9.9.9.9" style="ellipse;shape=cloud;whiteSpace=wrap;html=1;" vertex="1" parent="1">
          <mxGeometry x="990" y="170" width="120" height="80" as="geometry" />
        </mxCell>
        <mxCell id="hMn9EyxRoYZsTbVCq02E-68" value="" style="rounded=0;orthogonalLoop=1;jettySize=auto;html=1;entryX=0.145;entryY=0.145;entryDx=0;entryDy=0;entryPerimeter=0;endArrow=none;endFill=0;exitX=0.55;exitY=0.95;exitDx=0;exitDy=0;exitPerimeter=0;" edge="1" parent="1" source="hMn9EyxRoYZsTbVCq02E-69" target="zIdGuqCOg5LwLwfeNAEb-5">
          <mxGeometry relative="1" as="geometry">
            <mxPoint x="14.9972001000001" y="115.71500000000015" as="sourcePoint" />
            <mxPoint x="15" y="130" as="targetPoint" />
          </mxGeometry>
        </mxCell>
        <mxCell id="hMn9EyxRoYZsTbVCq02E-69" value="8.8.8.8" style="ellipse;shape=cloud;whiteSpace=wrap;html=1;" vertex="1" parent="1">
          <mxGeometry x="347.8" y="170" width="120" height="80" as="geometry" />
        </mxCell>
        <mxCell id="hMn9EyxRoYZsTbVCq02E-70" value="" style="rounded=0;orthogonalLoop=1;jettySize=auto;html=1;entryX=0.309;entryY=0.443;entryDx=0;entryDy=0;entryPerimeter=0;endArrow=none;endFill=0;exitX=0.55;exitY=0.95;exitDx=0;exitDy=0;exitPerimeter=0;" edge="1" parent="1" source="hMn9EyxRoYZsTbVCq02E-71" target="zIdGuqCOg5LwLwfeNAEb-4">
          <mxGeometry relative="1" as="geometry">
            <mxPoint x="24.9972001000001" y="125.71500000000015" as="sourcePoint" />
            <mxPoint x="25" y="140" as="targetPoint" />
          </mxGeometry>
        </mxCell>
        <mxCell id="hMn9EyxRoYZsTbVCq02E-71" value="7.7.7.7" style="ellipse;shape=cloud;whiteSpace=wrap;html=1;" vertex="1" parent="1">
          <mxGeometry x="-170" y="440" width="120" height="80" as="geometry" />
        </mxCell>
        <mxCell id="hMn9EyxRoYZsTbVCq02E-72" value="" style="rounded=0;orthogonalLoop=1;jettySize=auto;html=1;endArrow=none;endFill=0;exitX=0.55;exitY=0.95;exitDx=0;exitDy=0;exitPerimeter=0;entryX=0.251;entryY=0.414;entryDx=0;entryDy=0;entryPerimeter=0;" edge="1" parent="1" source="hMn9EyxRoYZsTbVCq02E-73" target="zIdGuqCOg5LwLwfeNAEb-33">
          <mxGeometry relative="1" as="geometry">
            <mxPoint x="34.9972001000001" y="135.71500000000015" as="sourcePoint" />
            <mxPoint x="35" y="150" as="targetPoint" />
          </mxGeometry>
        </mxCell>
        <mxCell id="hMn9EyxRoYZsTbVCq02E-73" value="6.6.6.6" style="ellipse;shape=cloud;whiteSpace=wrap;html=1;" vertex="1" parent="1">
          <mxGeometry x="-360" y="220" width="120" height="80" as="geometry" />
        </mxCell>
        <mxCell id="hMn9EyxRoYZsTbVCq02E-74" value="" style="rounded=0;orthogonalLoop=1;jettySize=auto;html=1;entryX=0.5;entryY=0;entryDx=0;entryDy=0;entryPerimeter=0;endArrow=none;endFill=0;exitX=0.55;exitY=0.95;exitDx=0;exitDy=0;exitPerimeter=0;" edge="1" parent="1" source="hMn9EyxRoYZsTbVCq02E-75" target="zIdGuqCOg5LwLwfeNAEb-25">
          <mxGeometry relative="1" as="geometry">
            <mxPoint x="44.9972001000001" y="145.71500000000015" as="sourcePoint" />
            <mxPoint x="45" y="160" as="targetPoint" />
          </mxGeometry>
        </mxCell>
        <mxCell id="hMn9EyxRoYZsTbVCq02E-75" value="5.5.5.5" style="ellipse;shape=cloud;whiteSpace=wrap;html=1;" vertex="1" parent="1">
          <mxGeometry x="780" y="-120" width="120" height="80" as="geometry" />
        </mxCell>
        <mxCell id="hMn9EyxRoYZsTbVCq02E-76" value="" style="rounded=0;orthogonalLoop=1;jettySize=auto;html=1;entryX=0.5;entryY=0;entryDx=0;entryDy=0;entryPerimeter=0;endArrow=none;endFill=0;exitX=0.55;exitY=0.95;exitDx=0;exitDy=0;exitPerimeter=0;" edge="1" parent="1" source="hMn9EyxRoYZsTbVCq02E-77" target="zIdGuqCOg5LwLwfeNAEb-2">
          <mxGeometry relative="1" as="geometry">
            <mxPoint x="54.9972001000001" y="155.71500000000015" as="sourcePoint" />
            <mxPoint x="55" y="170" as="targetPoint" />
          </mxGeometry>
        </mxCell>
        <mxCell id="hMn9EyxRoYZsTbVCq02E-77" value="4.4.4.4" style="ellipse;shape=cloud;whiteSpace=wrap;html=1;" vertex="1" parent="1">
          <mxGeometry x="545" y="-130" width="120" height="80" as="geometry" />
        </mxCell>
        <mxCell id="hMn9EyxRoYZsTbVCq02E-79" value="3.3.3.3" style="ellipse;shape=cloud;whiteSpace=wrap;html=1;" vertex="1" parent="1">
          <mxGeometry x="323" y="-130" width="120" height="80" as="geometry" />
        </mxCell>
        <mxCell id="hMn9EyxRoYZsTbVCq02E-80" value="" style="rounded=0;orthogonalLoop=1;jettySize=auto;html=1;entryX=0.5;entryY=0;entryDx=0;entryDy=0;entryPerimeter=0;endArrow=none;endFill=0;exitX=0.55;exitY=0.95;exitDx=0;exitDy=0;exitPerimeter=0;" edge="1" parent="1" source="hMn9EyxRoYZsTbVCq02E-81" target="zIdGuqCOg5LwLwfeNAEb-3">
          <mxGeometry relative="1" as="geometry">
            <mxPoint x="154.9972001000001" y="5.7150000000001455" as="sourcePoint" />
            <mxPoint x="155" y="20" as="targetPoint" />
          </mxGeometry>
        </mxCell>
        <mxCell id="hMn9EyxRoYZsTbVCq02E-81" value="2.2.2.2" style="ellipse;shape=cloud;whiteSpace=wrap;html=1;" vertex="1" parent="1">
          <mxGeometry x="95" y="-130" width="120" height="80" as="geometry" />
        </mxCell>
        <mxCell id="hMn9EyxRoYZsTbVCq02E-86" style="rounded=0;orthogonalLoop=1;jettySize=auto;html=1;exitX=0.5;exitY=0;exitDx=0;exitDy=0;exitPerimeter=0;entryX=0.55;entryY=0.95;entryDx=0;entryDy=0;entryPerimeter=0;endArrow=none;endFill=0;" edge="1" parent="1" source="zIdGuqCOg5LwLwfeNAEb-1" target="hMn9EyxRoYZsTbVCq02E-79">
          <mxGeometry relative="1" as="geometry" />
        </mxCell>
        <mxCell id="hMn9EyxRoYZsTbVCq02E-88" value="" style="rounded=0;orthogonalLoop=1;jettySize=auto;html=1;entryX=0.855;entryY=0.8555;entryDx=0;entryDy=0;entryPerimeter=0;endArrow=none;endFill=0;exitX=0.55;exitY=0.95;exitDx=0;exitDy=0;exitPerimeter=0;" edge="1" parent="1" source="hMn9EyxRoYZsTbVCq02E-89" target="hMn9EyxRoYZsTbVCq02E-1">
          <mxGeometry relative="1" as="geometry">
            <mxPoint x="-35.0027998999999" y="65.71500000000015" as="sourcePoint" />
            <mxPoint x="853" y="663" as="targetPoint" />
          </mxGeometry>
        </mxCell>
        <mxCell id="hMn9EyxRoYZsTbVCq02E-89" value="13.13.13.13" style="ellipse;shape=cloud;whiteSpace=wrap;html=1;" vertex="1" parent="1">
          <mxGeometry x="500" y="795" width="120" height="80" as="geometry" />
        </mxCell>
        <mxCell id="hMn9EyxRoYZsTbVCq02E-90" value="200.18.2.0/24" style="ellipse;shape=cloud;whiteSpace=wrap;html=1;" vertex="1" parent="1">
          <mxGeometry x="545" y="420" width="120" height="80" as="geometry" />
        </mxCell>
        <mxCell id="hMn9EyxRoYZsTbVCq02E-92" value="" style="endArrow=none;html=1;rounded=0;exitX=1;exitY=0.5;exitDx=0;exitDy=0;exitPerimeter=0;" edge="1" parent="1" source="zIdGuqCOg5LwLwfeNAEb-26" target="hMn9EyxRoYZsTbVCq02E-91">
          <mxGeometry width="50" height="50" relative="1" as="geometry">
            <mxPoint x="-20" y="95" as="sourcePoint" />
            <mxPoint x="140" y="94.41" as="targetPoint" />
          </mxGeometry>
        </mxCell>
        <mxCell id="hMn9EyxRoYZsTbVCq02E-91" value="30.18.1.0/24" style="ellipse;shape=cloud;whiteSpace=wrap;html=1;" vertex="1" parent="1">
          <mxGeometry x="10" y="55" width="120" height="80" as="geometry" />
        </mxCell>
        <mxCell id="hMn9EyxRoYZsTbVCq02E-94" value="" style="endArrow=none;html=1;rounded=0;" edge="1" parent="1" source="zIdGuqCOg5LwLwfeNAEb-3" target="hMn9EyxRoYZsTbVCq02E-93">
          <mxGeometry width="50" height="50" relative="1" as="geometry">
            <mxPoint x="190" y="95" as="sourcePoint" />
            <mxPoint x="360" y="95" as="targetPoint" />
          </mxGeometry>
        </mxCell>
        <mxCell id="hMn9EyxRoYZsTbVCq02E-93" value="30.18.2.0/24" style="ellipse;shape=cloud;whiteSpace=wrap;html=1;" vertex="1" parent="1">
          <mxGeometry x="227.8" y="55" width="120" height="80" as="geometry" />
        </mxCell>
        <mxCell id="hMn9EyxRoYZsTbVCq02E-95" value="30.18.3.0/24" style="ellipse;shape=cloud;whiteSpace=wrap;html=1;" vertex="1" parent="1">
          <mxGeometry x="440" y="62.5" width="120" height="80" as="geometry" />
        </mxCell>
        <mxCell id="hMn9EyxRoYZsTbVCq02E-97" value="" style="endArrow=none;html=1;rounded=0;exitX=0;exitY=0.5;exitDx=0;exitDy=0;exitPerimeter=0;entryX=0.875;entryY=0.5;entryDx=0;entryDy=0;entryPerimeter=0;" edge="1" parent="1" source="zIdGuqCOg5LwLwfeNAEb-25" target="hMn9EyxRoYZsTbVCq02E-96">
          <mxGeometry width="50" height="50" relative="1" as="geometry">
            <mxPoint x="820" y="95" as="sourcePoint" />
            <mxPoint x="629.9999999999998" y="99.20000000000005" as="targetPoint" />
          </mxGeometry>
        </mxCell>
        <mxCell id="hMn9EyxRoYZsTbVCq02E-96" value="30.18.4.0/24" style="ellipse;shape=cloud;whiteSpace=wrap;html=1;" vertex="1" parent="1">
          <mxGeometry x="665" y="55" width="120" height="80" as="geometry" />
        </mxCell>
        <mxCell id="hMn9EyxRoYZsTbVCq02E-98" value="100.18.1.0/24" style="ellipse;shape=cloud;whiteSpace=wrap;html=1;" vertex="1" parent="1">
          <mxGeometry x="-105" y="170" width="120" height="80" as="geometry" />
        </mxCell>
        <mxCell id="hMn9EyxRoYZsTbVCq02E-100" value="" style="endArrow=none;html=1;rounded=0;entryX=0.5;entryY=1;entryDx=0;entryDy=0;entryPerimeter=0;exitX=0.5;exitY=0;exitDx=0;exitDy=0;exitPerimeter=0;" edge="1" parent="1" source="zIdGuqCOg5LwLwfeNAEb-4" target="hMn9EyxRoYZsTbVCq02E-99">
          <mxGeometry width="50" height="50" relative="1" as="geometry">
            <mxPoint x="165" y="300" as="sourcePoint" />
            <mxPoint x="165" y="120" as="targetPoint" />
          </mxGeometry>
        </mxCell>
        <mxCell id="hMn9EyxRoYZsTbVCq02E-99" value="100.18.2.0/24" style="ellipse;shape=cloud;whiteSpace=wrap;html=1;" vertex="1" parent="1">
          <mxGeometry x="95" y="170" width="120" height="80" as="geometry" />
        </mxCell>
        <mxCell id="hMn9EyxRoYZsTbVCq02E-102" value="" style="endArrow=none;html=1;rounded=0;entryX=0.5;entryY=1;entryDx=0;entryDy=0;entryPerimeter=0;exitX=0.5;exitY=0;exitDx=0;exitDy=0;exitPerimeter=0;" edge="1" parent="1" source="zIdGuqCOg5LwLwfeNAEb-5" target="hMn9EyxRoYZsTbVCq02E-101">
          <mxGeometry width="50" height="50" relative="1" as="geometry">
            <mxPoint x="605" y="300" as="sourcePoint" />
            <mxPoint x="605" y="120" as="targetPoint" />
          </mxGeometry>
        </mxCell>
        <mxCell id="hMn9EyxRoYZsTbVCq02E-101" value="100.18.3.0/24" style="ellipse;shape=cloud;whiteSpace=wrap;html=1;" vertex="1" parent="1">
          <mxGeometry x="545" y="160" width="120" height="80" as="geometry" />
        </mxCell>
        <mxCell id="hMn9EyxRoYZsTbVCq02E-104" value="" style="endArrow=none;html=1;rounded=0;exitX=0.5;exitY=0;exitDx=0;exitDy=0;exitPerimeter=0;" edge="1" parent="1" source="zIdGuqCOg5LwLwfeNAEb-31" target="hMn9EyxRoYZsTbVCq02E-103">
          <mxGeometry width="50" height="50" relative="1" as="geometry">
            <mxPoint x="835" y="300" as="sourcePoint" />
            <mxPoint x="835" y="120" as="targetPoint" />
          </mxGeometry>
        </mxCell>
        <mxCell id="hMn9EyxRoYZsTbVCq02E-103" value="100.18.4.0/24" style="ellipse;shape=cloud;whiteSpace=wrap;html=1;" vertex="1" parent="1">
          <mxGeometry x="775" y="160" width="120" height="80" as="geometry" />
        </mxCell>
        <mxCell id="hMn9EyxRoYZsTbVCq02E-105" value="" style="endArrow=none;html=1;rounded=0;entryX=0.5;entryY=1;entryDx=0;entryDy=0;entryPerimeter=0;exitX=0.5;exitY=0;exitDx=0;exitDy=0;exitPerimeter=0;" edge="1" parent="1" source="zIdGuqCOg5LwLwfeNAEb-67" target="hMn9EyxRoYZsTbVCq02E-106">
          <mxGeometry width="50" height="50" relative="1" as="geometry">
            <mxPoint x="165" y="520" as="sourcePoint" />
            <mxPoint x="165" y="340" as="targetPoint" />
          </mxGeometry>
        </mxCell>
        <mxCell id="hMn9EyxRoYZsTbVCq02E-106" value="200.18.1.0/24" style="ellipse;shape=cloud;whiteSpace=wrap;html=1;" vertex="1" parent="1">
          <mxGeometry x="105" y="400" width="120" height="80" as="geometry" />
        </mxCell>
        <mxCell id="hMn9EyxRoYZsTbVCq02E-108" value="" style="endArrow=none;html=1;rounded=0;entryX=0.5;entryY=1;entryDx=0;entryDy=0;entryPerimeter=0;exitX=0.5;exitY=0;exitDx=0;exitDy=0;exitPerimeter=0;" edge="1" parent="1" source="zIdGuqCOg5LwLwfeNAEb-62" target="hMn9EyxRoYZsTbVCq02E-107">
          <mxGeometry width="50" height="50" relative="1" as="geometry">
            <mxPoint x="835" y="620" as="sourcePoint" />
            <mxPoint x="835" y="350" as="targetPoint" />
          </mxGeometry>
        </mxCell>
        <mxCell id="hMn9EyxRoYZsTbVCq02E-107" value="200.18.3.0/24" style="ellipse;shape=cloud;whiteSpace=wrap;html=1;" vertex="1" parent="1">
          <mxGeometry x="775" y="430" width="120" height="80" as="geometry" />
        </mxCell>
        <mxCell id="hMn9EyxRoYZsTbVCq02E-110" value="" style="rounded=0;orthogonalLoop=1;jettySize=auto;html=1;endArrow=none;endFill=0;" edge="1" parent="1" source="hMn9EyxRoYZsTbVCq02E-2" target="hMn9EyxRoYZsTbVCq02E-111">
          <mxGeometry relative="1" as="geometry">
            <mxPoint x="370" y="972" as="sourcePoint" />
            <mxPoint x="280" y="926" as="targetPoint" />
          </mxGeometry>
        </mxCell>
        <mxCell id="hMn9EyxRoYZsTbVCq02E-111" value="200.18.100.0/24&lt;br&gt;vlan40" style="ellipse;shape=cloud;whiteSpace=wrap;html=1;" vertex="1" parent="1">
          <mxGeometry x="215" y="882" width="120" height="80" as="geometry" />
        </mxCell>
        <mxCell id="hMn9EyxRoYZsTbVCq02E-112" value="" style="rounded=0;orthogonalLoop=1;jettySize=auto;html=1;endArrow=none;endFill=0;exitX=0.015;exitY=0.985;exitDx=0;exitDy=0;exitPerimeter=0;" edge="1" parent="1" source="hMn9EyxRoYZsTbVCq02E-2" target="hMn9EyxRoYZsTbVCq02E-113">
          <mxGeometry relative="1" as="geometry">
            <mxPoint x="371" y="1009" as="sourcePoint" />
            <mxPoint x="140" y="1040" as="targetPoint" />
          </mxGeometry>
        </mxCell>
        <mxCell id="hMn9EyxRoYZsTbVCq02E-113" value="200.18.130.0&lt;br&gt;vlan30" style="ellipse;shape=cloud;whiteSpace=wrap;html=1;" vertex="1" parent="1">
          <mxGeometry x="200" y="986" width="120" height="80" as="geometry" />
        </mxCell>
        <mxCell id="hMn9EyxRoYZsTbVCq02E-114" value="" style="edgeStyle=orthogonalEdgeStyle;rounded=0;orthogonalLoop=1;jettySize=auto;html=1;endArrow=none;endFill=0;exitX=1;exitY=0.5;exitDx=0;exitDy=0;exitPerimeter=0;" edge="1" parent="1" source="hMn9EyxRoYZsTbVCq02E-2" target="hMn9EyxRoYZsTbVCq02E-115">
          <mxGeometry relative="1" as="geometry">
            <mxPoint x="420" y="985" as="sourcePoint" />
            <mxPoint x="600" y="985" as="targetPoint" />
            <Array as="points" />
          </mxGeometry>
        </mxCell>
        <mxCell id="hMn9EyxRoYZsTbVCq02E-115" value="200.18.120.0&lt;br&gt;vlan20" style="ellipse;shape=cloud;whiteSpace=wrap;html=1;" vertex="1" parent="1">
          <mxGeometry x="435" y="946" width="120" height="80" as="geometry" />
        </mxCell>
        <mxCell id="hMn9EyxRoYZsTbVCq02E-116" value="" style="rounded=0;orthogonalLoop=1;jettySize=auto;html=1;endArrow=none;endFill=0;exitX=0.5;exitY=1;exitDx=0;exitDy=0;exitPerimeter=0;" edge="1" parent="1" source="hMn9EyxRoYZsTbVCq02E-2" target="hMn9EyxRoYZsTbVCq02E-117">
          <mxGeometry relative="1" as="geometry">
            <mxPoint x="395" y="1010" as="sourcePoint" />
            <mxPoint x="395" y="1123" as="targetPoint" />
          </mxGeometry>
        </mxCell>
        <mxCell id="hMn9EyxRoYZsTbVCq02E-117" value="200.18.110.0&lt;br&gt;vlan10" style="ellipse;shape=cloud;whiteSpace=wrap;html=1;" vertex="1" parent="1">
          <mxGeometry x="330" y="1026" width="120" height="80" as="geometry" />
        </mxCell>
        <mxCell id="hMn9EyxRoYZsTbVCq02E-119" value="200.18.140.0&lt;br&gt;vlan10" style="ellipse;shape=cloud;whiteSpace=wrap;html=1;" vertex="1" parent="1">
          <mxGeometry x="745" y="911" width="120" height="80" as="geometry" />
        </mxCell>
        <mxCell id="hMn9EyxRoYZsTbVCq02E-120" value="" style="rounded=0;orthogonalLoop=1;jettySize=auto;html=1;entryX=0.6;entryY=0.522;entryDx=0;entryDy=0;entryPerimeter=0;" edge="1" parent="1" source="hMn9EyxRoYZsTbVCq02E-18" target="hMn9EyxRoYZsTbVCq02E-121">
          <mxGeometry relative="1" as="geometry">
            <mxPoint x="860" y="848" as="sourcePoint" />
            <mxPoint x="1050" y="1024" as="targetPoint" />
          </mxGeometry>
        </mxCell>
        <mxCell id="hMn9EyxRoYZsTbVCq02E-121" value="200.18.150.0&lt;div&gt;vlan20&lt;/div&gt;" style="ellipse;shape=cloud;whiteSpace=wrap;html=1;" vertex="1" parent="1">
          <mxGeometry x="855" y="866" width="120" height="80" as="geometry" />
        </mxCell>
        <mxCell id="hMn9EyxRoYZsTbVCq02E-122" value="1" style="text;html=1;align=center;verticalAlign=middle;whiteSpace=wrap;rounded=0;" vertex="1" parent="1">
          <mxGeometry x="-40" y="100" width="60" height="30" as="geometry" />
        </mxCell>
        <mxCell id="hMn9EyxRoYZsTbVCq02E-123" value="1" style="text;html=1;align=center;verticalAlign=middle;whiteSpace=wrap;rounded=0;" vertex="1" parent="1">
          <mxGeometry x="605" y="100" width="60" height="30" as="geometry" />
        </mxCell>
        <mxCell id="hMn9EyxRoYZsTbVCq02E-124" value="1" style="text;html=1;align=center;verticalAlign=middle;whiteSpace=wrap;rounded=0;" vertex="1" parent="1">
          <mxGeometry x="383" y="100" width="60" height="30" as="geometry" />
        </mxCell>
        <mxCell id="hMn9EyxRoYZsTbVCq02E-125" value="1" style="text;html=1;align=center;verticalAlign=middle;whiteSpace=wrap;rounded=0;" vertex="1" parent="1">
          <mxGeometry x="167.8" y="90" width="60" height="30" as="geometry" />
        </mxCell>
        <mxCell id="hMn9EyxRoYZsTbVCq02E-126" value="2" style="text;html=1;align=center;verticalAlign=middle;whiteSpace=wrap;rounded=0;" vertex="1" parent="1">
          <mxGeometry x="105" y="105" width="60" height="30" as="geometry" />
        </mxCell>
        <mxCell id="hMn9EyxRoYZsTbVCq02E-127" value="2" style="text;html=1;align=center;verticalAlign=middle;whiteSpace=wrap;rounded=0;" vertex="1" parent="1">
          <mxGeometry x="780" y="100" width="60" height="30" as="geometry" />
        </mxCell>
        <mxCell id="hMn9EyxRoYZsTbVCq02E-128" value="2" style="text;html=1;align=center;verticalAlign=middle;whiteSpace=wrap;rounded=0;" vertex="1" parent="1">
          <mxGeometry x="545" y="100" width="60" height="30" as="geometry" />
        </mxCell>
        <mxCell id="hMn9EyxRoYZsTbVCq02E-129" value="2" style="text;html=1;align=center;verticalAlign=middle;whiteSpace=wrap;rounded=0;" vertex="1" parent="1">
          <mxGeometry x="330" y="100" width="60" height="30" as="geometry" />
        </mxCell>
        <mxCell id="hMn9EyxRoYZsTbVCq02E-130" value="1" style="text;html=1;align=center;verticalAlign=middle;whiteSpace=wrap;rounded=0;" vertex="1" parent="1">
          <mxGeometry x="-60" y="150" width="60" height="30" as="geometry" />
        </mxCell>
        <mxCell id="hMn9EyxRoYZsTbVCq02E-131" value="2" style="text;html=1;align=center;verticalAlign=middle;whiteSpace=wrap;rounded=0;" vertex="1" parent="1">
          <mxGeometry x="-60" y="245" width="60" height="30" as="geometry" />
        </mxCell>
        <mxCell id="hMn9EyxRoYZsTbVCq02E-133" value="1" style="text;html=1;align=center;verticalAlign=middle;whiteSpace=wrap;rounded=0;" vertex="1" parent="1">
          <mxGeometry x="145" y="142.5" width="60" height="30" as="geometry" />
        </mxCell>
        <mxCell id="hMn9EyxRoYZsTbVCq02E-134" value="2" style="text;html=1;align=center;verticalAlign=middle;whiteSpace=wrap;rounded=0;" vertex="1" parent="1">
          <mxGeometry x="155" y="240" width="60" height="30" as="geometry" />
        </mxCell>
        <mxCell id="hMn9EyxRoYZsTbVCq02E-135" value="1" style="text;html=1;align=center;verticalAlign=middle;whiteSpace=wrap;rounded=0;" vertex="1" parent="1">
          <mxGeometry x="560" y="142.5" width="60" height="30" as="geometry" />
        </mxCell>
        <mxCell id="hMn9EyxRoYZsTbVCq02E-136" value="2" style="text;html=1;align=center;verticalAlign=middle;whiteSpace=wrap;rounded=0;" vertex="1" parent="1">
          <mxGeometry x="590" y="240" width="60" height="30" as="geometry" />
        </mxCell>
        <mxCell id="hMn9EyxRoYZsTbVCq02E-137" value="1" style="text;html=1;align=center;verticalAlign=middle;whiteSpace=wrap;rounded=0;" vertex="1" parent="1">
          <mxGeometry x="767" y="150" width="60" height="30" as="geometry" />
        </mxCell>
        <mxCell id="hMn9EyxRoYZsTbVCq02E-138" value="2" style="text;html=1;align=center;verticalAlign=middle;whiteSpace=wrap;rounded=0;" vertex="1" parent="1">
          <mxGeometry x="760" y="230" width="60" height="30" as="geometry" />
        </mxCell>
        <mxCell id="hMn9EyxRoYZsTbVCq02E-139" value="1" style="text;html=1;align=center;verticalAlign=middle;whiteSpace=wrap;rounded=0;" vertex="1" parent="1">
          <mxGeometry x="157.8" y="382.5" width="60" height="30" as="geometry" />
        </mxCell>
        <mxCell id="hMn9EyxRoYZsTbVCq02E-140" value="2" style="text;html=1;align=center;verticalAlign=middle;whiteSpace=wrap;rounded=0;" vertex="1" parent="1">
          <mxGeometry x="167.8" y="480" width="60" height="30" as="geometry" />
        </mxCell>
        <mxCell id="hMn9EyxRoYZsTbVCq02E-141" value="1" style="text;html=1;align=center;verticalAlign=middle;whiteSpace=wrap;rounded=0;" vertex="1" parent="1">
          <mxGeometry x="605" y="392.5" width="60" height="30" as="geometry" />
        </mxCell>
        <mxCell id="hMn9EyxRoYZsTbVCq02E-142" value="2" style="text;html=1;align=center;verticalAlign=middle;whiteSpace=wrap;rounded=0;" vertex="1" parent="1">
          <mxGeometry x="615" y="490" width="60" height="30" as="geometry" />
        </mxCell>
        <mxCell id="hMn9EyxRoYZsTbVCq02E-143" value="1" style="text;html=1;align=center;verticalAlign=middle;whiteSpace=wrap;rounded=0;" vertex="1" parent="1">
          <mxGeometry x="850" y="420" width="60" height="30" as="geometry" />
        </mxCell>
        <mxCell id="hMn9EyxRoYZsTbVCq02E-144" value="2" style="text;html=1;align=center;verticalAlign=middle;whiteSpace=wrap;rounded=0;" vertex="1" parent="1">
          <mxGeometry x="860" y="517.5" width="60" height="30" as="geometry" />
        </mxCell>
        <mxCell id="hMn9EyxRoYZsTbVCq02E-146" value="200.18.10.10/24&lt;br&gt;VRRP" style="ellipse;shape=cloud;whiteSpace=wrap;html=1;" vertex="1" parent="1">
          <mxGeometry x="335" y="630" width="120" height="80" as="geometry" />
        </mxCell>
        <mxCell id="hMn9EyxRoYZsTbVCq02E-148" value="" style="endArrow=none;html=1;rounded=0;entryX=0;entryY=0.5;entryDx=0;entryDy=0;entryPerimeter=0;exitX=0.8555;exitY=0.145;exitDx=0;exitDy=0;exitPerimeter=0;" edge="1" parent="1" target="hMn9EyxRoYZsTbVCq02E-147">
          <mxGeometry width="50" height="50" relative="1" as="geometry">
            <mxPoint x="402.7750000000001" y="607.25" as="sourcePoint" />
            <mxPoint x="580" y="545" as="targetPoint" />
          </mxGeometry>
        </mxCell>
        <mxCell id="hMn9EyxRoYZsTbVCq02E-147" value="200.18.10.2/24" style="ellipse;shape=cloud;whiteSpace=wrap;html=1;" vertex="1" parent="1">
          <mxGeometry x="460" y="530" width="120" height="80" as="geometry" />
        </mxCell>
        <mxCell id="hMn9EyxRoYZsTbVCq02E-150" value="200.18.10.1/24" style="ellipse;shape=cloud;whiteSpace=wrap;html=1;" vertex="1" parent="1">
          <mxGeometry x="180" y="570.5" width="120" height="80" as="geometry" />
        </mxCell>
        <mxCell id="hMn9EyxRoYZsTbVCq02E-151" value="200.18.10.11/24" style="ellipse;shape=cloud;whiteSpace=wrap;html=1;" vertex="1" parent="1">
          <mxGeometry x="335" y="705" width="120" height="80" as="geometry" />
        </mxCell>
        <mxCell id="hMn9EyxRoYZsTbVCq02E-152" style="rounded=0;orthogonalLoop=1;jettySize=auto;html=1;exitX=0.145;exitY=0.145;exitDx=0;exitDy=0;exitPerimeter=0;entryX=1.02;entryY=0.84;entryDx=0;entryDy=0;entryPerimeter=0;dashed=1;dashPattern=8 8;endArrow=none;endFill=0;" edge="1" parent="1" source="zIdGuqCOg5LwLwfeNAEb-62" target="zIdGuqCOg5LwLwfeNAEb-68">
          <mxGeometry relative="1" as="geometry" />
        </mxCell>
        <mxCell id="hMn9EyxRoYZsTbVCq02E-153" value="200.18.30.0/24&lt;br&gt;gre2" style="ellipse;shape=cloud;whiteSpace=wrap;html=1;" vertex="1" parent="1">
          <mxGeometry x="665" y="560" width="120" height="80" as="geometry" />
        </mxCell>
        <mxCell id="hMn9EyxRoYZsTbVCq02E-154" style="rounded=0;orthogonalLoop=1;jettySize=auto;html=1;exitX=0.145;exitY=0.855;exitDx=0;exitDy=0;exitPerimeter=0;entryX=0.02;entryY=0.64;entryDx=0;entryDy=0;entryPerimeter=0;dashed=1;dashPattern=12 12;endArrow=none;endFill=0;" edge="1" parent="1" source="hMn9EyxRoYZsTbVCq02E-156" target="zIdGuqCOg5LwLwfeNAEb-67">
          <mxGeometry relative="1" as="geometry" />
        </mxCell>
        <mxCell id="hMn9EyxRoYZsTbVCq02E-155" value="" style="rounded=0;orthogonalLoop=1;jettySize=auto;html=1;exitX=0.145;exitY=0.855;exitDx=0;exitDy=0;exitPerimeter=0;entryX=0.02;entryY=0.64;entryDx=0;entryDy=0;entryPerimeter=0;dashed=1;dashPattern=12 12;endArrow=none;endFill=0;" edge="1" parent="1" source="zIdGuqCOg5LwLwfeNAEb-62" target="hMn9EyxRoYZsTbVCq02E-156">
          <mxGeometry relative="1" as="geometry">
            <mxPoint x="817" y="663" as="sourcePoint" />
            <mxPoint x="141" y="552" as="targetPoint" />
          </mxGeometry>
        </mxCell>
        <mxCell id="hMn9EyxRoYZsTbVCq02E-156" value="200.18.20.1/24&lt;br&gt;gre1" style="ellipse;shape=cloud;whiteSpace=wrap;html=1;" vertex="1" parent="1">
          <mxGeometry x="680" y="640" width="120" height="80" as="geometry" />
        </mxCell>
      </root>
    </mxGraphModel>
  </diagram>
</mxfile>
